#!OML:ASF F:\VICON\USERDATA\INSTALL\rory3\rory3.ASF
:FULLY-SPECIFIED
:DEGREES
193
root 4.58409 17.6677 4.68495 -0.769628 -18.3103 -4.64618
lowerback 26.0796 -0.62727 4.20017
upperback 5.45913 0.949875 7.68823
thorax -8.47504 0.373806 5.89664
lowerneck -8.75536 -4.99505 -5.4399
upperneck 28.0131 -5.09229 -4.05963
head 10.4626 -3.38916 -1.10793
rclavicle -3.97569e-014 1.43125e-014
rhumerus -20.3014 -27.2979 -57.1252
rradius 31.9697
rwrist 32.6433
rhand -8.8139 2.71857
rfingers 7.12502
rthumb 17.1256 -26.5467
lclavicle -3.97569e-014 1.43125e-014
lhumerus -49.2268 11.0191 79.9504
lradius 49.3619
lwrist 3.13207
lhand -10.0069 48.0131
lfingers 7.12502
lthumb 15.977 77.3742
rfemur 0.32393 10.5072 24.3659
rtibia 35.4757
rfoot -19.8811 -13.2488
rtoes -9.92219
lfemur -26.629 -11.6293 0.302699
ltibia 17.2677
lfoot 7.42559 17.3331
ltoes -6.99299
194
root 4.57126 17.6413 4.44076 -0.72219 -18.6997 -4.41456
lowerback 26.7855 -0.323208 3.87406
upperback 5.18032 1.36213 7.84696
thorax -9.19527 0.584535 6.16851
lowerneck -8.40988 -5.02782 -5.59069
upperneck 28.0427 -5.08765 -4.24765
head 10.4084 -3.42283 -1.13877
rclavicle -4.05521e-014 4.77083e-014
rhumerus -19.421 -31.9345 -56.0715
rradius 28.0979
rwrist 31.8254
rhand -6.92482 1.38617
rfingers 7.12502
rthumb 18.9431 -27.7114
lclavicle -4.05521e-014 4.77083e-014
lhumerus -49.1127 9.7559 80.9551
lradius 49.3828
lwrist 1.65005
lhand -10.1908 46.5445
lfingers 7.12502
lthumb 15.7999 75.9198
rfemur -1.01688 10.5656 24.304
rtibia 36.1432
rfoot -20.4038 -13.5117
rtoes -8.55019
lfemur -26.7136 -11.6857 0.435047
ltibia 17.7281
lfoot 3.90468 17.7279
ltoes -5.26307
195
root 4.56167 17.633 4.24185 -0.789011 -19.0569 -4.34251
lowerback 27.0086 -0.316505 3.78767
upperback 5.29976 1.35097 7.85962
thorax -9.1743 0.578226 6.2407
lowerneck -8.88339 -4.84792 -4.96315
upperneck 28.2071 -4.76032 -4.83655
head 10.5203 -3.28237 -1.43404
rclavicle -2.14687e-014 6.36111e-015
rhumerus -18.5735 -33.3138 -56.3792
rradius 26.2801
rwrist 26.0261
rhand -6.4372 -0.68436
rfingers 7.12502
rthumb 19.412 -29.7354
lclavicle -2.14687e-014 6.36111e-015
lhumerus -48.8391 9.28082 81.2984
lradius 49.7419
lwrist -0.0362752
lhand -9.79275 46.0822
lfingers 7.12502
lthumb 16.1832 75.4267
rfemur -1.93889 10.572 24.3374
rtibia 36.7377
rfoot -21.1678 -13.4159
rtoes -6.76699
lfemur -26.5484 -11.3516 0.276885
ltibia 18.7048
lfoot 1.23913 17.0693
ltoes -9.46386
196
root 4.55552 17.6087 4.0137 -0.79397 -19.3284 -4.64236
lowerback 27.8241 -0.409065 3.84418
upperback 5.14662 1.35306 8.07693
thorax -9.76904 0.582853 6.49958
lowerneck -8.82031 -4.49118 -4.47183
upperneck 28.3636 -4.15121 -5.61295
head 10.5328 -3.04868 -1.72547
rclavicle 3.97569e-014 -7.95139e-015
rhumerus -18.0556 -35.8259 -56.2134
rradius 24.4002
rwrist 20.9127
rhand -7.13009 -1.98513
rfingers 7.12502
rthumb 18.7457 -31.1019
lclavicle 3.97569e-014 -7.95139e-015
lhumerus -49.2345 9.20073 81.5695
lradius 50.3887
lwrist -1.49885
lhand -9.22172 45.7812
lfingers 7.12502
lthumb 16.733 75.0801
rfemur -2.91842 10.7519 24.8833
rtibia 37.3051
rfoot -21.5045 -13.5215
rtoes -5.54996
lfemur -26.603 -10.5601 0.353541
ltibia 20.0366
lfoot -0.813084 15.8595
ltoes -16.806
197
root 4.55044 17.5951 3.80011 -0.78198 -19.4845 -4.52734
lowerback 28.2498 -0.415283 3.6372
upperback 5.02448 1.35301 8.25131
thorax -10.136 0.596111 6.85103
lowerneck -8.46628 -4.41559 -4.93121
upperneck 28.3367 -3.97962 -5.63814
head 10.4729 -3.01917 -1.62719
rclavicle 2.62396e-014 -5.40694e-014
rhumerus -17.9514 -39.1874 -55.5689
rradius 22.9346
rwrist 16.9783
rhand -8.42991 -2.76838
rfingers 7.12502
rthumb 17.4951 -32.0011
lclavicle 2.62396e-014 -5.40694e-014
lhumerus -49.6542 9.38047 81.8717
lradius 51.2511
lwrist -3.00174
lhand -8.72331 44.8302
lfingers 7.12502
lthumb 17.2128 74.0879
rfemur -3.96779 10.7727 24.8844
rtibia 37.8185
rfoot -21.7007 -13.6371
rtoes -5.56838
lfemur -26.9049 -9.75638 -0.127807
ltibia 21.724
lfoot -1.47646 16.3009
ltoes -9.51569
198
root 4.5335 17.5883 3.60148 -0.874594 -19.7739 -4.74581
lowerback 28.568 -0.324066 3.68734
upperback 5.09679 1.53151 8.52142
thorax -10.2387 0.680227 7.0856
lowerneck -8.73285 -4.39482 -5.11262
upperneck 28.4507 -3.89411 -5.62855
head 10.5763 -3.0029 -1.5962
rclavicle 2.8625e-014 -5.56597e-014
rhumerus -18.2647 -43.0016 -54.5885
rradius 21.892
rwrist 14.5182
rhand -9.70126 -2.73186
rfingers 7.12502
rthumb 16.2713 -32.0691
lclavicle 2.8625e-014 -5.56597e-014
lhumerus -49.8619 9.37321 82.2159
lradius 52.225
lwrist -3.87979
lhand -8.54373 44.6063
lfingers 7.12502
lthumb 17.3856 73.8487
rfemur -4.72863 11.0795 25.3873
rtibia 38.3465
rfoot -21.7504 -14.0376
rtoes -5.79608
lfemur -26.7394 -8.61504 -0.414531
ltibia 23.4672
lfoot -3.87471 15.3273
ltoes -12.0568
199
root 4.52466 17.569 3.37337 -0.990709 -19.7541 -4.59061
lowerback 29.216 -0.312049 3.50431
upperback 4.7463 1.57683 8.87718
thorax -10.4317 0.64806 7.05155
lowerneck -8.96663 -4.38837 -5.05648
upperneck 28.7308 -3.83566 -5.76211
head 10.724 -2.99492 -1.66367
rclavicle -1.90833e-014 -5.08889e-014
rhumerus -18.9565 -45.8638 -53.8019
rradius 21.5477
rwrist 12.1183
rhand -10.5989 -2.22365
rfingers 7.12502
rthumb 15.4069 -31.6295
lclavicle -1.90833e-014 -5.08889e-014
lhumerus -49.9827 9.28853 82.3556
lradius 52.9751
lwrist -3.8754
lhand -8.50292 44.4803
lfingers 7.12502
lthumb 17.4249 73.7193
rfemur -5.78662 11.2938 25.4911
rtibia 38.9871
rfoot -21.993 -14.2153
rtoes -4.16169
lfemur -26.9851 -7.38096 -1.13683
ltibia 25.3433
lfoot -4.69773 14.1964
ltoes -13.9169
200
root 4.51728 17.5723 3.18742 -1.2429 -19.4628 -3.67935
lowerback 29.0324 -0.376413 2.96253
upperback 4.88257 1.27638 8.64911
thorax -10.1765 0.522619 7.2018
lowerneck -9.45457 -4.45335 -4.8692
upperneck 28.9382 -3.90926 -5.80687
head 10.8907 -3.0219 -1.74216
rclavicle 4.77083e-014 -6.52014e-014
rhumerus -19.3249 -46.6709 -53.8044
rradius 21.895
rwrist 8.43931
rhand -11.4802 -2.3161
rfingers 7.12502
rthumb 14.5579 -31.7853
lclavicle 4.77083e-014 -6.52014e-014
lhumerus -49.6866 9.13241 82.3838
lradius 53.545
lwrist -3.42571
lhand -8.60264 44.4851
lfingers 7.12502
lthumb 17.3289 73.7326
rfemur -6.7293 10.9629 24.6232
rtibia 39.6185
rfoot -22.4563 -14.0516
rtoes -2.67413
lfemur -27.2535 -6.63599 -2.71309
ltibia 27.3133
lfoot -5.63655 13.1021
ltoes -14.7651
201
root 4.51159 17.561 2.97907 -1.19548 -19.2325 -3.4206
lowerback 29.2518 -0.427632 2.8522
upperback 4.92417 1.18811 8.63469
thorax -10.2206 0.483537 7.28061
lowerneck -9.83019 -4.49244 -4.74794
upperneck 28.8644 -3.97711 -5.74971
head 10.933 -3.03316 -1.75886
rclavicle 3.02153e-014 -6.04305e-014
rhumerus -19.6624 -46.4557 -54.1329
rradius 22.8
rwrist 4.82994
rhand -12.1598 -2.72193
rfingers 7.12502
rthumb 13.903 -32.2372
lclavicle 3.02153e-014 -6.04305e-014
lhumerus -49.306 9.14426 82.4005
lradius 53.95
lwrist -2.74272
lhand -9.51731 43.8724
lfingers 7.12502
lthumb 16.4484 73.1951
rfemur -8.00017 11.0002 24.5252
rtibia 40.4124
rfoot -22.4765 -14.1654
rtoes -1.39071
lfemur -27.7724 -5.79553 -3.48686
ltibia 29.341
lfoot -6.74363 12.046
ltoes -11.7821
202
root 4.5082 17.5654 2.79322 -1.39834 -19.2081 -2.92814
lowerback 29.5169 -0.342248 2.55419
upperback 4.87386 1.23653 8.66526
thorax -10.4119 0.518609 7.46762
lowerneck -9.44119 -4.57511 -5.03984
upperneck 28.5447 -4.10954 -5.61652
head 10.7477 -3.09745 -1.65435
rclavicle 2.94201e-014 -3.65764e-014
rhumerus -20.5417 -45.9362 -53.8663
rradius 23.9693
rwrist 1.50209
rhand -12.8828 -2.86267
rfingers 7.12502
rthumb 13.2062 -32.4244
lclavicle 2.94201e-014 -3.65764e-014
lhumerus -49.2718 9.16217 82.5818
lradius 54.2125
lwrist -2.11161
lhand -10.1404 43.3586
lfingers 7.12502
lthumb 15.8485 72.7299
rfemur -8.99094 11.1508 24.1579
rtibia 41.1785
rfoot -22.3073 -14.2954
rtoes -1.32343
lfemur -27.8712 -5.26673 -4.55582
ltibia 31.5289
lfoot -6.70988 11.2738
ltoes -13.4028
203
root 4.50981 17.5699 2.60808 -1.51466 -19.2011 -2.48176
lowerback 29.6013 -0.433338 2.17676
upperback 5.03282 0.981764 8.58955
thorax -10.2512 0.405472 7.68237
lowerneck -9.94993 -4.45964 -4.79499
upperneck 28.5032 -3.93444 -5.70609
head 10.8228 -3.00635 -1.72103
rclavicle -7.95139e-015 -4.13472e-014
rhumerus -20.6202 -46.2662 -54.4991
rradius 24.9956
rwrist -0.642107
rhand -13.5967 -2.26753
rfingers 7.12502
rthumb 12.5179 -31.8726
lclavicle -7.95139e-015 -4.13472e-014
lhumerus -48.9864 9.72222 82.3093
lradius 54.5719
lwrist -1.07782
lhand -10.4368 43.9455
lfingers 7.12502
lthumb 15.563 73.3393
rfemur -10.1189 11.1597 23.7568
rtibia 41.93
rfoot -21.9 -14.2832
rtoes -1.48757
lfemur -28.0378 -4.78445 -5.55705
ltibia 33.8406
lfoot -7.63061 10.4799
ltoes -11.7486
204
root 4.51526 17.5698 2.4105 -1.3654 -19.0799 -2.50272
lowerback 29.8692 -0.46671 2.34772
upperback 4.8478 1.05169 8.77145
thorax -10.5874 0.441179 7.77418
lowerneck -9.66915 -4.50895 -4.93133
upperneck 28.3529 -3.96598 -5.84477
head 10.7132 -3.04523 -1.7379
rclavicle 3.18055e-015 1.59028e-014
rhumerus -21.8149 -46.6073 -53.8477
rradius 26.3855
rwrist -2.82909
rhand -14.2044 -1.75169
rfingers 7.12502
rthumb 11.932 -31.3917
lclavicle 3.18055e-015 1.59028e-014
lhumerus -49.1887 9.87577 82.4811
lradius 55.1271
lwrist 0.388692
lhand -10.5074 44.8111
lfingers 7.12502
lthumb 15.495 74.2102
rfemur -11.4308 11.0921 23.8358
rtibia 42.6066
rfoot -21.4929 -14.1265
rtoes -0.0394976
lfemur -28.4893 -4.09027 -6.10541
ltibia 36.1939
lfoot -8.43892 9.68573
ltoes -11.1333
205
root 4.52168 17.5978 2.23683 -1.46339 -18.9733 -1.99198
lowerback 30.008 -0.487581 2.2217
upperback 4.68892 1.00833 8.72173
thorax -10.8219 0.431764 7.81394
lowerneck -9.10794 -4.6053 -5.25422
upperneck 28.0361 -4.14123 -5.66629
head 10.4987 -3.1255 -1.61225
rclavicle 5.32743e-014 -6.04305e-014
rhumerus -22.9748 -44.3328 -53.9266
rradius 28.5728
rwrist -7.55572
rhand -15.442 -1.98913
rfingers 7.12502
rthumb 10.7384 -31.6947
lclavicle 5.32743e-014 -6.04305e-014
lhumerus -49.5006 9.92814 82.4952
lradius 55.6669
lwrist 2.05966
lhand -10.7818 45.0449
lfingers 7.12502
lthumb 15.2307 74.4642
rfemur -12.4805 10.7307 23.3059
rtibia 43.1983
rfoot -21.127 -13.8961
rtoes 0.513681
lfemur -28.67 -3.42846 -7.37265
ltibia 38.5074
lfoot -9.00679 9.25957
ltoes -13.6778
206
root 4.52713 17.619 2.05605 -1.40378 -18.8119 -1.64418
lowerback 29.986 -0.623302 2.09971
upperback 4.75314 0.781887 8.67724
thorax -10.7141 0.327782 7.91351
lowerneck -9.1865 -4.5614 -5.32216
upperneck 27.623 -4.08844 -5.59701
head 10.3648 -3.0908 -1.5588
rclavicle 5.24792e-014 9.06458e-014
rhumerus -23.2593 -43.5832 -54.599
rradius 30.3512
rwrist -10.8129
rhand -16.9348 -1.8445
rfingers 7.12502
rthumb 9.29827 -31.6194
lclavicle 5.24792e-014 9.06458e-014
lhumerus -49.2537 10.3374 82.2828
lradius 55.8792
lwrist 3.75299
lhand -11.1028 45.2693
lfingers 7.12502
lthumb 14.9215 74.7118
rfemur -13.6692 10.2403 22.929
rtibia 43.7228
rfoot -20.6797 -13.6013
rtoes 0.568623
lfemur -28.8978 -2.51786 -8.47997
ltibia 40.7626
lfoot -9.53764 8.77263
ltoes -16.394
